<svg width="238" height="250" viewBox="0 0 238 250" fill="none" xmlns="http://www.w3.org/2000/svg">
<g clip-path="url(#clip0_259_2)">
<rect width="238" height="250" fill="white"/>
<path d="M238.234 250L150.086 125.132L119.207 168.971L176.297 250H238.234Z" fill="#FC4CDA"/>
<path d="M0 250H62.1168L119.207 168.971L88.1484 125.132L0 250Z" fill="#0077FF"/>
<path d="M88.1488 125.132L119.207 168.971L150.086 125.132L119.207 81.2938L88.1488 125.132Z" fill="#3613FA"/>
<path d="M176.297 0.264465L119.207 81.2937L150.086 125.132L238.234 0.264465H176.297Z" fill="#2CE5E5"/>
<path d="M62.1168 0.264465H0L88.1484 125.132L119.207 81.2937L62.1168 0.264465Z" fill="#3613FA"/>
<path d="M150.086 125.132L119.207 81.2938L88.1488 125.132L119.207 168.971L150.086 125.132Z" fill="#0400B5"/>
</g>
<defs>
<clipPath id="clip0_259_2">
<rect width="238" height="250" fill="white"/>
</clipPath>
</defs>
</svg>
